<?xml version="1.0" encoding="UTF-8"?>
<svg xmlns="http://www.w3.org/2000/svg" xmlns:xlink="http://www.w3.org/1999/xlink" width="500pt" height="380pt" viewBox="0 0 500 380" version="1.1">
<defs>
<filter id="alpha" filterUnits="objectBoundingBox" x="0%" y="0%" width="100%" height="100%">
  <feColorMatrix type="matrix" in="SourceGraphic" values="0 0 0 0 1 0 0 0 0 1 0 0 0 0 1 0 0 0 1 0"/>
</filter>
<mask id="mask0">
  <g filter="url(#alpha)">
<rect x="0" y="0" width="500" height="380" style="fill:rgb(0%,0%,0%);fill-opacity:0.101961;stroke:none;"/>
  </g>
</mask>
<clipPath id="clip1">
  <rect width="500" height="380"/>
</clipPath>
<g id="surface6" clip-path="url(#clip1)">
<path style=" stroke:none;fill-rule:nonzero;fill:rgb(0%,0%,0%);fill-opacity:1;" d="M 442.359375 335.777344 C 442.359375 330.746094 356.671875 326.667969 250.972656 326.667969 C 145.273438 326.667969 59.589844 330.746094 59.589844 335.777344 C 59.589844 340.808594 145.273438 344.890625 250.972656 344.890625 C 356.671875 344.890625 442.359375 340.808594 442.359375 335.777344 Z M 442.359375 335.777344 "/>
</g>
<mask id="mask1">
  <g filter="url(#alpha)">
<rect x="0" y="0" width="500" height="380" style="fill:rgb(0%,0%,0%);fill-opacity:0.101961;stroke:none;"/>
  </g>
</mask>
<clipPath id="clip2">
  <rect width="500" height="380"/>
</clipPath>
<g id="surface9" clip-path="url(#clip2)">
<path style=" stroke:none;fill-rule:nonzero;fill:rgb(0%,0%,0%);fill-opacity:1;" d="M 174.484375 371.644531 C 174.484375 368.640625 138.550781 366.207031 94.222656 366.207031 C 49.898438 366.207031 13.964844 368.640625 13.964844 371.644531 C 13.964844 374.648438 49.898438 377.082031 94.222656 377.082031 C 138.550781 377.082031 174.484375 374.648438 174.484375 371.644531 Z M 174.484375 371.644531 "/>
</g>
<mask id="mask2">
  <g filter="url(#alpha)">
<rect x="0" y="0" width="500" height="380" style="fill:rgb(0%,0%,0%);fill-opacity:0.101961;stroke:none;"/>
  </g>
</mask>
<clipPath id="clip3">
  <rect width="500" height="380"/>
</clipPath>
<g id="surface12" clip-path="url(#clip3)">
<path style=" stroke:none;fill-rule:nonzero;fill:rgb(0%,0%,0%);fill-opacity:1;" d="M 87.121094 85.332031 L 421.046875 85.332031 L 421.046875 86.667969 L 87.121094 86.667969 Z M 87.121094 85.332031 "/>
</g>
<mask id="mask3">
  <g filter="url(#alpha)">
<rect x="0" y="0" width="500" height="380" style="fill:rgb(0%,0%,0%);fill-opacity:0.101961;stroke:none;"/>
  </g>
</mask>
<clipPath id="clip4">
  <rect width="500" height="380"/>
</clipPath>
<g id="surface15" clip-path="url(#clip4)">
<path style=" stroke:none;fill-rule:nonzero;fill:rgb(0%,0%,0%);fill-opacity:1;" d="M 93.308594 309.636719 C 93.640625 312 94.066406 314.375 93.953125 316.761719 C 93.792969 320.089844 92.59375 323.300781 92.371094 326.628906 C 92.207031 329.113281 92.589844 331.625 92.246094 334.089844 C 92.023438 335.667969 91.507812 337.191406 91.191406 338.753906 C 90.171875 343.898438 91.289062 349.238281 94.285156 353.539062 C 94.503906 353.902344 94.816406 354.203125 95.183594 354.410156 C 95.539062 354.542969 95.921875 354.59375 96.300781 354.558594 C 100.042969 354.480469 103.777344 354.140625 107.476562 353.539062 C 107.746094 353.53125 108.003906 353.417969 108.195312 353.222656 C 108.277344 353.097656 108.332031 352.953125 108.347656 352.800781 C 109.035156 349.273438 107.472656 345.738281 107.074219 342.164062 C 106.648438 338.351562 107.5625 334.53125 108.472656 330.804688 C 108.882812 328.964844 109.398438 327.148438 110.011719 325.367188 C 110.449219 324.167969 110.980469 323.003906 111.359375 321.785156 C 111.898438 319.871094 112.226562 317.902344 112.335938 315.917969 C 112.601562 312.785156 112.742188 309.644531 112.757812 306.496094 C 112.847656 303.511719 112.597656 300.527344 112.015625 297.601562 C 111.183594 293.894531 109.476562 290.457031 107.78125 287.054688 C 106.878906 287.273438 106.027344 287.675781 105.289062 288.242188 C 103.105469 289.65625 100.828125 290.914062 98.472656 292.011719 C 96.886719 292.746094 93.800781 293.269531 92.792969 294.804688 C 91.804688 296.316406 92.441406 299.40625 92.519531 301.074219 C 92.648438 303.9375 92.914062 306.792969 93.308594 309.636719 Z M 93.308594 309.636719 "/>
</g>
</defs>
<g id="surface1">
<path style=" stroke:none;fill-rule:nonzero;fill:rgb(94.901961%,94.901961%,94.901961%);fill-opacity:1;" d="M 241.945312 335.972656 C 134.308594 327.773438 5.949219 244.296875 12.484375 158.347656 C 19.019531 72.394531 143.339844 -7.617188 250.976562 0.578125 C 358.613281 8.777344 420.570312 169.40625 414.035156 255.359375 C 407.5 341.3125 349.582031 344.171875 241.945312 335.972656 Z M 241.945312 335.972656 "/>
<path style=" stroke:none;fill-rule:nonzero;fill:rgb(24.705882%,23.921569%,33.72549%);fill-opacity:1;" d="M 475.664062 336 C 475.664062 328.390625 375.066406 322.222656 250.972656 322.222656 C 126.882812 322.222656 26.285156 328.390625 26.285156 336 C 26.285156 343.609375 126.882812 349.777344 250.972656 349.777344 C 375.066406 349.777344 475.664062 343.609375 475.664062 336 Z M 475.664062 336 "/>
<use xlink:href="#surface6" mask="url(#mask0)"/>
<path style=" stroke:none;fill-rule:nonzero;fill:rgb(24.705882%,23.921569%,33.72549%);fill-opacity:1;" d="M 188.449219 371.777344 C 188.449219 367.238281 146.261719 363.554688 94.222656 363.554688 C 42.1875 363.554688 0 367.238281 0 371.777344 C 0 376.320312 42.1875 380 94.222656 380 C 146.261719 380 188.449219 376.320312 188.449219 371.777344 Z M 188.449219 371.777344 "/>
<use xlink:href="#surface9" mask="url(#mask1)"/>
<path style=" stroke:none;fill-rule:nonzero;fill:rgb(24.705882%,23.921569%,33.72549%);fill-opacity:1;" d="M 87.121094 72 L 421.046875 72 L 421.046875 334.222656 L 87.121094 334.222656 Z M 87.121094 72 "/>
<path style=" stroke:none;fill-rule:nonzero;fill:rgb(94.901961%,94.901961%,94.901961%);fill-opacity:1;" d="M 250.285156 107.835938 L 167.902344 107.835938 C 167.546875 107.835938 167.214844 107.644531 167.035156 107.335938 C 166.859375 107.027344 166.859375 106.644531 167.035156 106.332031 C 167.214844 106.023438 167.546875 105.832031 167.902344 105.832031 L 250.285156 105.832031 C 250.835938 105.835938 251.28125 106.28125 251.28125 106.835938 C 251.28125 107.386719 250.835938 107.835938 250.285156 107.835938 Z M 250.285156 107.835938 "/>
<path style=" stroke:none;fill-rule:nonzero;fill:rgb(94.901961%,94.901961%,94.901961%);fill-opacity:1;" d="M 340.460938 118.84375 L 210.894531 118.84375 C 210.339844 118.84375 209.894531 118.394531 209.894531 117.839844 C 209.894531 117.289062 210.339844 116.839844 210.894531 116.839844 L 340.460938 116.839844 C 341.011719 116.839844 341.460938 117.289062 341.460938 117.839844 C 341.460938 118.394531 341.011719 118.84375 340.460938 118.84375 Z M 340.460938 118.84375 "/>
<path style=" stroke:none;fill-rule:nonzero;fill:rgb(94.901961%,94.901961%,94.901961%);fill-opacity:1;" d="M 250.683594 129.847656 L 168.304688 129.847656 C 167.753906 129.847656 167.304688 129.402344 167.304688 128.847656 C 167.304688 128.296875 167.753906 127.847656 168.304688 127.847656 L 250.683594 127.847656 C 251.234375 127.847656 251.683594 128.296875 251.683594 128.847656 C 251.683594 129.402344 251.234375 129.847656 250.683594 129.847656 Z M 250.683594 129.847656 "/>
<path style=" stroke:none;fill-rule:nonzero;fill:rgb(94.901961%,94.901961%,94.901961%);fill-opacity:1;" d="M 340.460938 130.050781 L 258.082031 130.050781 C 257.527344 130.050781 257.082031 129.601562 257.082031 129.046875 C 257.082031 128.496094 257.527344 128.046875 258.082031 128.046875 L 340.460938 128.046875 C 341.011719 128.046875 341.460938 128.496094 341.460938 129.046875 C 341.460938 129.601562 341.011719 130.050781 340.460938 130.050781 Z M 340.460938 130.050781 "/>
<path style=" stroke:none;fill-rule:nonzero;fill:rgb(94.901961%,94.901961%,94.901961%);fill-opacity:1;" d="M 250.882812 140.855469 L 168.503906 140.855469 C 167.953125 140.855469 167.503906 140.40625 167.503906 139.855469 C 167.503906 139.304688 167.953125 138.855469 168.503906 138.855469 L 250.882812 138.855469 C 251.433594 138.855469 251.882812 139.304688 251.882812 139.855469 C 251.882812 140.40625 251.433594 140.855469 250.882812 140.855469 Z M 250.882812 140.855469 "/>
<path style=" stroke:none;fill-rule:nonzero;fill:rgb(94.901961%,94.901961%,94.901961%);fill-opacity:1;" d="M 251.082031 151.863281 L 168.703125 151.863281 C 168.152344 151.863281 167.703125 151.414062 167.703125 150.863281 C 167.703125 150.308594 168.152344 149.863281 168.703125 149.863281 L 251.082031 149.863281 C 251.636719 149.863281 252.082031 150.308594 252.082031 150.863281 C 252.082031 151.414062 251.636719 151.863281 251.082031 151.863281 Z M 251.082031 151.863281 "/>
<path style=" stroke:none;fill-rule:nonzero;fill:rgb(94.901961%,94.901961%,94.901961%);fill-opacity:1;" d="M 288.472656 108.035156 L 264.878906 108.035156 C 264.328125 108.035156 263.878906 107.585938 263.878906 107.035156 C 263.878906 106.480469 264.328125 106.035156 264.878906 106.035156 L 288.472656 106.035156 C 289.027344 106.035156 289.472656 106.480469 289.472656 107.035156 C 289.472656 107.585938 289.027344 108.035156 288.472656 108.035156 Z M 288.472656 108.035156 "/>
<path style=" stroke:none;fill-rule:nonzero;fill:rgb(94.901961%,94.901961%,94.901961%);fill-opacity:1;" d="M 288.472656 140.855469 L 264.878906 140.855469 C 264.328125 140.855469 263.878906 140.40625 263.878906 139.855469 C 263.878906 139.304688 264.328125 138.855469 264.878906 138.855469 L 288.472656 138.855469 C 289.027344 138.855469 289.472656 139.304688 289.472656 139.855469 C 289.472656 140.40625 289.027344 140.855469 288.472656 140.855469 Z M 288.472656 140.855469 "/>
<path style=" stroke:none;fill-rule:nonzero;fill:rgb(94.901961%,94.901961%,94.901961%);fill-opacity:1;" d="M 288.472656 151.664062 L 264.878906 151.664062 C 264.523438 151.664062 264.191406 151.472656 264.011719 151.164062 C 263.832031 150.851562 263.832031 150.472656 264.011719 150.160156 C 264.191406 149.851562 264.523438 149.660156 264.878906 149.660156 L 288.472656 149.660156 C 288.832031 149.660156 289.164062 149.851562 289.339844 150.160156 C 289.519531 150.472656 289.519531 150.851562 289.339844 151.164062 C 289.164062 151.472656 288.832031 151.664062 288.472656 151.664062 Z M 288.472656 151.664062 "/>
<path style=" stroke:none;fill-rule:nonzero;fill:rgb(94.901961%,94.901961%,94.901961%);fill-opacity:1;" d="M 328.0625 151.664062 L 304.46875 151.664062 C 303.917969 151.660156 303.472656 151.214844 303.472656 150.664062 C 303.472656 150.109375 303.917969 149.664062 304.46875 149.660156 L 328.0625 149.660156 C 328.421875 149.660156 328.753906 149.851562 328.929688 150.160156 C 329.109375 150.472656 329.109375 150.851562 328.929688 151.164062 C 328.753906 151.472656 328.421875 151.664062 328.0625 151.664062 Z M 328.0625 151.664062 "/>
<path style=" stroke:none;fill-rule:nonzero;fill:rgb(94.901961%,94.901961%,94.901961%);fill-opacity:1;" d="M 191.296875 118.84375 L 167.703125 118.84375 C 167.152344 118.84375 166.703125 118.394531 166.703125 117.839844 C 166.703125 117.289062 167.152344 116.839844 167.703125 116.839844 L 191.296875 116.839844 C 191.851562 116.839844 192.296875 117.289062 192.296875 117.839844 C 192.296875 118.394531 191.851562 118.84375 191.296875 118.84375 Z M 191.296875 118.84375 "/>
<path style=" stroke:none;fill-rule:nonzero;fill:rgb(94.901961%,94.901961%,94.901961%);fill-opacity:1;" d="M 250.382812 269.9375 L 168.003906 269.9375 C 167.453125 269.9375 167.003906 269.488281 167.003906 268.9375 C 167.003906 268.382812 167.453125 267.9375 168.003906 267.9375 L 250.382812 267.9375 C 250.933594 267.9375 251.382812 268.382812 251.382812 268.9375 C 251.382812 269.488281 250.933594 269.9375 250.382812 269.9375 Z M 250.382812 269.9375 "/>
<path style=" stroke:none;fill-rule:nonzero;fill:rgb(94.901961%,94.901961%,94.901961%);fill-opacity:1;" d="M 249.984375 291.953125 L 167.605469 291.953125 C 167.050781 291.953125 166.605469 291.503906 166.605469 290.953125 C 166.605469 290.398438 167.050781 289.949219 167.605469 289.949219 L 249.984375 289.949219 C 250.535156 289.949219 250.984375 290.398438 250.984375 290.953125 C 250.984375 291.503906 250.535156 291.953125 249.984375 291.953125 Z M 249.984375 291.953125 "/>
<path style=" stroke:none;fill-rule:nonzero;fill:rgb(94.901961%,94.901961%,94.901961%);fill-opacity:1;" d="M 250.183594 302.957031 L 167.804688 302.957031 C 167.445312 302.960938 167.117188 302.769531 166.9375 302.460938 C 166.757812 302.148438 166.757812 301.765625 166.9375 301.457031 C 167.117188 301.148438 167.445312 300.957031 167.804688 300.957031 L 250.183594 300.957031 C 250.542969 300.957031 250.871094 301.148438 251.050781 301.457031 C 251.230469 301.765625 251.230469 302.148438 251.050781 302.460938 C 250.871094 302.769531 250.542969 302.960938 250.183594 302.957031 Z M 250.183594 302.957031 "/>
<path style=" stroke:none;fill-rule:nonzero;fill:rgb(94.901961%,94.901961%,94.901961%);fill-opacity:1;" d="M 285.375 292.152344 L 261.78125 292.152344 C 261.226562 292.152344 260.78125 291.703125 260.78125 291.152344 C 260.78125 290.597656 261.226562 290.152344 261.78125 290.152344 L 285.375 290.152344 C 285.925781 290.152344 286.375 290.597656 286.375 291.152344 C 286.375 291.703125 285.925781 292.152344 285.375 292.152344 Z M 285.375 292.152344 "/>
<path style=" stroke:none;fill-rule:nonzero;fill:rgb(94.901961%,94.901961%,94.901961%);fill-opacity:1;" d="M 285.375 302.957031 L 261.78125 302.957031 C 261.226562 302.957031 260.78125 302.511719 260.78125 301.957031 C 260.78125 301.40625 261.226562 300.957031 261.78125 300.957031 L 285.375 300.957031 C 285.925781 300.957031 286.375 301.40625 286.375 301.957031 C 286.375 302.511719 285.925781 302.957031 285.375 302.957031 Z M 285.375 302.957031 "/>
<path style=" stroke:none;fill-rule:nonzero;fill:rgb(94.901961%,94.901961%,94.901961%);fill-opacity:1;" d="M 324.964844 292.152344 L 301.371094 292.152344 C 300.816406 292.152344 300.371094 291.703125 300.371094 291.152344 C 300.371094 290.597656 300.816406 290.152344 301.371094 290.152344 L 324.964844 290.152344 C 325.515625 290.152344 325.964844 290.597656 325.964844 291.152344 C 325.964844 291.703125 325.515625 292.152344 324.964844 292.152344 Z M 324.964844 292.152344 "/>
<path style=" stroke:none;fill-rule:nonzero;fill:rgb(94.901961%,94.901961%,94.901961%);fill-opacity:1;" d="M 340.558594 280.945312 L 210.992188 280.945312 C 210.441406 280.945312 209.992188 280.496094 209.992188 279.945312 C 209.992188 279.390625 210.441406 278.945312 210.992188 278.945312 L 340.558594 278.945312 C 341.113281 278.945312 341.558594 279.390625 341.558594 279.945312 C 341.558594 280.496094 341.113281 280.945312 340.558594 280.945312 Z M 340.558594 280.945312 "/>
<path style=" stroke:none;fill-rule:nonzero;fill:rgb(94.901961%,94.901961%,94.901961%);fill-opacity:1;" d="M 191.398438 280.945312 L 167.804688 280.945312 C 167.253906 280.945312 166.804688 280.496094 166.804688 279.945312 C 166.804688 279.390625 167.253906 278.945312 167.804688 278.945312 L 191.398438 278.945312 C 191.949219 278.945312 192.398438 279.390625 192.398438 279.945312 C 192.398438 280.496094 191.949219 280.945312 191.398438 280.945312 Z M 191.398438 280.945312 "/>
<path style=" stroke:none;fill-rule:nonzero;fill:rgb(94.901961%,94.901961%,94.901961%);fill-opacity:1;" d="M 340.558594 314.167969 L 210.992188 314.167969 C 210.636719 314.167969 210.304688 313.976562 210.125 313.667969 C 209.945312 313.355469 209.945312 312.972656 210.125 312.664062 C 210.304688 312.355469 210.636719 312.164062 210.992188 312.164062 L 340.558594 312.164062 C 341.113281 312.164062 341.558594 312.613281 341.558594 313.164062 C 341.558594 313.71875 341.113281 314.167969 340.558594 314.167969 Z M 340.558594 314.167969 "/>
<path style=" stroke:none;fill-rule:nonzero;fill:rgb(94.901961%,94.901961%,94.901961%);fill-opacity:1;" d="M 191.398438 314.167969 L 167.804688 314.167969 C 167.445312 314.167969 167.117188 313.976562 166.9375 313.667969 C 166.757812 313.355469 166.757812 312.972656 166.9375 312.664062 C 167.117188 312.355469 167.445312 312.164062 167.804688 312.164062 L 191.398438 312.164062 C 191.757812 312.164062 192.085938 312.355469 192.265625 312.664062 C 192.445312 312.972656 192.445312 313.355469 192.265625 313.667969 C 192.085938 313.976562 191.757812 314.167969 191.398438 314.167969 Z M 191.398438 314.167969 "/>
<path style=" stroke:none;fill-rule:nonzero;fill:rgb(42.352941%,38.823529%,100%);fill-opacity:1;" d="M 230.488281 178.28125 L 198.496094 209.898438 L 230.488281 241.519531 L 237.6875 234.316406 L 213.492188 210.101562 L 237.886719 185.683594 Z M 230.488281 178.28125 "/>
<path style=" stroke:none;fill-rule:nonzero;fill:rgb(42.352941%,38.823529%,100%);fill-opacity:1;" d="M 277.675781 178.28125 L 309.667969 209.898438 L 277.675781 241.519531 L 270.476562 234.316406 L 294.671875 210.101562 L 270.277344 185.683594 Z M 277.675781 178.28125 "/>
<path style=" stroke:none;fill-rule:nonzero;fill:rgb(42.352941%,38.823529%,100%);fill-opacity:1;" d="M 99.996094 78.667969 C 99.996094 80.875 98.207031 82.667969 96 82.667969 C 93.792969 82.667969 92.003906 80.875 92.003906 78.667969 C 92.003906 76.457031 93.792969 74.667969 96 74.667969 C 98.207031 74.667969 99.996094 76.457031 99.996094 78.667969 Z M 99.996094 78.667969 "/>
<path style=" stroke:none;fill-rule:nonzero;fill:rgb(42.352941%,38.823529%,100%);fill-opacity:1;" d="M 110.65625 78.667969 C 110.65625 80.875 108.863281 82.667969 106.65625 82.667969 C 104.449219 82.667969 102.660156 80.875 102.660156 78.667969 C 102.660156 76.457031 104.449219 74.667969 106.65625 74.667969 C 108.863281 74.667969 110.65625 76.457031 110.65625 78.667969 Z M 110.65625 78.667969 "/>
<path style=" stroke:none;fill-rule:nonzero;fill:rgb(42.352941%,38.823529%,100%);fill-opacity:1;" d="M 121.3125 78.667969 C 121.3125 80.875 119.523438 82.667969 117.316406 82.667969 C 115.109375 82.667969 113.320312 80.875 113.320312 78.667969 C 113.320312 76.457031 115.109375 74.667969 117.316406 74.667969 C 119.523438 74.667969 121.3125 76.457031 121.3125 78.667969 Z M 121.3125 78.667969 "/>
<use xlink:href="#surface12" mask="url(#mask2)"/>
<path style=" stroke:none;fill-rule:nonzero;fill:rgb(94.901961%,94.901961%,94.901961%);fill-opacity:1;" d="M 500.085938 269.980469 C 500.085938 298.320312 483.25 308.21875 462.484375 308.21875 C 441.71875 308.21875 424.886719 298.320312 424.886719 269.980469 C 424.886719 241.636719 462.484375 205.582031 462.484375 205.582031 C 462.484375 205.582031 500.085938 241.636719 500.085938 269.980469 Z M 500.085938 269.980469 "/>
<path style=" stroke:none;fill-rule:nonzero;fill:rgb(24.705882%,23.921569%,33.72549%);fill-opacity:1;" d="M 461.117188 303.882812 L 461.5 280.164062 L 477.527344 250.816406 L 461.5625 276.441406 L 461.734375 265.777344 L 472.78125 244.542969 L 461.78125 262.953125 L 462.089844 243.769531 L 473.917969 226.867188 L 462.140625 240.753906 L 462.335938 205.582031 L 461.113281 252.144531 L 461.210938 250.222656 L 449.1875 231.800781 L 461.019531 253.910156 L 459.898438 275.335938 L 459.867188 274.765625 L 446.003906 255.378906 L 459.824219 276.773438 L 459.683594 279.453125 L 459.660156 279.496094 L 459.671875 279.714844 L 456.828125 334.066406 L 460.625 334.066406 L 461.082031 305.992188 L 474.867188 284.648438 Z M 461.117188 303.882812 "/>
<path style=" stroke:none;fill-rule:nonzero;fill:rgb(18.431373%,18.039216%,25.490196%);fill-opacity:1;" d="M 54.449219 333.820312 C 53.296875 334.460938 52.078125 334.984375 50.820312 335.375 C 48.5625 335.992188 46.152344 335.765625 43.875 336.292969 C 42.941406 336.507812 41.925781 336.957031 41.628906 337.867188 C 41.414062 338.539062 41.648438 339.257812 41.875 339.921875 C 44.394531 347.308594 45.910156 355.152344 49.925781 361.84375 C 51.613281 364.652344 53.707031 367.199219 56.136719 369.394531 C 57.050781 370.21875 58.085938 371.023438 59.308594 371.152344 C 60.453125 371.273438 61.574219 370.773438 62.25 369.835938 C 62.925781 368.902344 63.050781 367.679688 62.578125 366.625 C 62.21875 365.824219 61.550781 365.207031 61.121094 364.441406 C 60.652344 363.46875 60.375 362.414062 60.3125 361.335938 C 59.914062 358.175781 59.53125 354.875 60.625 351.882812 C 61.359375 349.878906 62.707031 348.167969 63.828125 346.351562 C 64.945312 344.535156 65.878906 342.453125 65.628906 340.332031 C 65.457031 338.882812 64.753906 337.558594 64.007812 336.308594 C 63.261719 335.054688 61.785156 331.683594 60.285156 331.261719 C 58.730469 330.828125 55.808594 333.121094 54.449219 333.820312 Z M 54.449219 333.820312 "/>
<path style=" stroke:none;fill-rule:nonzero;fill:rgb(18.431373%,18.039216%,25.490196%);fill-opacity:1;" d="M 95.496094 359.332031 C 95.519531 360.046875 95.417969 360.761719 95.203125 361.441406 C 94.730469 362.683594 93.566406 363.535156 92.964844 364.714844 C 92.128906 366.359375 92.507812 368.347656 93.0625 370.109375 C 93.410156 371.214844 93.867188 372.363281 94.800781 373.042969 C 95.597656 373.539062 96.503906 373.832031 97.441406 373.890625 C 105.453125 375 113.585938 374.363281 121.667969 374.597656 C 123.144531 374.640625 124.703125 374.691406 125.988281 373.96875 C 127.273438 373.25 128.070312 371.4375 127.195312 370.25 C 126.410156 369.1875 124.855469 369.195312 123.535156 369.132812 C 120.09375 368.957031 116.816406 367.605469 114.25 365.304688 C 113.742188 364.871094 113.304688 364.367188 112.945312 363.804688 C 112.671875 363.304688 112.441406 362.78125 112.265625 362.238281 C 111.132812 359.167969 109.785156 356.179688 108.230469 353.296875 C 107.796875 352.492188 107.304688 351.652344 106.496094 351.21875 C 105.90625 350.949219 105.261719 350.8125 104.613281 350.808594 C 102.597656 350.679688 97.382812 349.992188 95.824219 351.558594 C 94.386719 353.007812 95.527344 357.492188 95.496094 359.332031 Z M 95.496094 359.332031 "/>
<path style=" stroke:none;fill-rule:nonzero;fill:rgb(98.431373%,74.509804%,74.509804%);fill-opacity:1;" d="M 120.757812 167.429688 C 120.757812 174.542969 114.996094 180.308594 107.890625 180.308594 C 100.785156 180.308594 95.023438 174.542969 95.023438 167.429688 C 95.023438 160.320312 100.785156 154.554688 107.890625 154.554688 C 114.996094 154.554688 120.757812 160.320312 120.757812 167.429688 Z M 120.757812 167.429688 "/>
<path style=" stroke:none;fill-rule:nonzero;fill:rgb(98.431373%,74.509804%,74.509804%);fill-opacity:1;" d="M 96.273438 178.066406 C 95.507812 180.117188 94.210938 182.042969 92.320312 183.144531 L 110.117188 186.777344 C 109.46875 184.179688 109.386719 181.472656 109.867188 178.835938 C 110.042969 178.199219 110.078125 177.53125 109.972656 176.875 C 109.636719 175.585938 108.183594 174.960938 106.882812 174.664062 C 103.636719 173.925781 100.765625 173.527344 97.746094 172.089844 C 96.824219 173.671875 96.953125 176.242188 96.273438 178.066406 Z M 96.273438 178.066406 "/>
<path style=" stroke:none;fill-rule:nonzero;fill:rgb(18.431373%,18.039216%,25.490196%);fill-opacity:1;" d="M 92.171875 178.324219 C 96.050781 176.566406 100.519531 176.683594 104.300781 178.640625 C 106.582031 179.84375 108.46875 181.660156 110.328125 183.453125 C 112.039062 185.105469 113.863281 186.996094 113.984375 189.371094 C 114.042969 190.523438 113.683594 191.648438 113.503906 192.785156 C 112.835938 197.609375 115.289062 202.332031 119.621094 204.550781 C 121.035156 206.90625 121.328125 209.761719 121.347656 212.511719 C 121.429688 222.929688 118.148438 233.472656 120.492188 243.621094 C 121.042969 246.003906 121.894531 248.3125 122.371094 250.710938 C 122.988281 253.816406 122.957031 257.011719 123.277344 260.164062 C 123.628906 263.578125 124.390625 266.933594 125.546875 270.164062 C 124.773438 271.394531 123.164062 271.867188 121.710938 271.769531 C 120.257812 271.667969 118.902344 271.039062 117.605469 270.375 C 111.335938 267.160156 105.589844 262.925781 99.097656 260.195312 C 94.796875 258.390625 90.21875 257.265625 86.050781 255.179688 C 81.882812 253.09375 78.003906 249.78125 76.730469 245.296875 C 76.179688 243.355469 76.144531 241.3125 76.117188 239.292969 C 75.988281 230.800781 75.871094 222.210938 77.71875 213.917969 C 79.347656 206.605469 82.488281 199.609375 83.171875 192.152344 C 83.398438 189.722656 83.402344 187.121094 84.757812 185.09375 C 86.671875 182.230469 90.8125 181.488281 92.171875 178.324219 Z M 92.171875 178.324219 "/>
<path style=" stroke:none;fill-rule:nonzero;fill:rgb(18.431373%,18.039216%,25.490196%);fill-opacity:1;" d="M 100.574219 167.613281 C 101.332031 166.625 102.792969 166.488281 104.003906 166.78125 C 105.214844 167.074219 106.332031 167.699219 107.554688 167.9375 C 108.117188 168.097656 108.722656 168.011719 109.21875 167.703125 C 109.644531 167.28125 109.902344 166.714844 109.9375 166.117188 C 110.363281 163.5625 110.464844 160.96875 110.234375 158.390625 C 110.171875 158.03125 110.195312 157.65625 110.304688 157.308594 C 110.605469 156.578125 111.53125 156.402344 112.285156 156.167969 C 114.847656 155.300781 116.496094 152.808594 116.289062 150.109375 C 116.269531 149.480469 116.003906 148.882812 115.550781 148.449219 C 115.03125 148.023438 114.300781 147.996094 113.625 147.992188 C 110.167969 147.960938 106.710938 147.964844 103.25 147.992188 C 101.96875 148.003906 100.625 148.035156 99.515625 148.675781 C 98.695312 149.144531 98.085938 149.90625 97.347656 150.5 C 95.429688 152.054688 92.828125 152.367188 90.492188 153.164062 C 89.351562 153.488281 88.316406 154.109375 87.488281 154.957031 C 86.710938 155.847656 86.335938 157.167969 86.824219 158.242188 C 87.074219 158.691406 87.355469 159.121094 87.664062 159.535156 C 89.042969 161.738281 88.125 164.601562 88.328125 167.195312 C 88.585938 170.433594 93.375 175.691406 96.625 176.457031 C 101.867188 177.695312 98.835938 169.738281 100.574219 167.613281 Z M 100.574219 167.613281 "/>
<path style=" stroke:none;fill-rule:nonzero;fill:rgb(18.431373%,18.039216%,25.490196%);fill-opacity:1;" d="M 93.308594 309.636719 C 93.640625 312 94.066406 314.375 93.953125 316.761719 C 93.792969 320.089844 92.59375 323.300781 92.371094 326.628906 C 92.207031 329.113281 92.589844 331.625 92.246094 334.089844 C 92.023438 335.667969 91.507812 337.191406 91.191406 338.753906 C 90.171875 343.898438 91.289062 349.238281 94.285156 353.539062 C 94.503906 353.902344 94.816406 354.203125 95.183594 354.410156 C 95.539062 354.542969 95.921875 354.59375 96.300781 354.558594 C 100.042969 354.480469 103.777344 354.140625 107.476562 353.539062 C 107.746094 353.53125 108.003906 353.417969 108.195312 353.222656 C 108.277344 353.097656 108.332031 352.953125 108.347656 352.800781 C 109.035156 349.273438 107.472656 345.738281 107.074219 342.164062 C 106.648438 338.351562 107.5625 334.53125 108.472656 330.804688 C 108.882812 328.964844 109.398438 327.148438 110.011719 325.367188 C 110.449219 324.167969 110.980469 323.003906 111.359375 321.785156 C 111.898438 319.871094 112.226562 317.902344 112.335938 315.917969 C 112.601562 312.785156 112.742188 309.644531 112.757812 306.496094 C 112.847656 303.511719 112.597656 300.527344 112.015625 297.601562 C 111.183594 293.894531 109.476562 290.457031 107.78125 287.054688 C 106.878906 287.273438 106.027344 287.675781 105.289062 288.242188 C 103.105469 289.65625 100.828125 290.914062 98.472656 292.011719 C 96.886719 292.746094 93.800781 293.269531 92.792969 294.804688 C 91.804688 296.316406 92.441406 299.40625 92.519531 301.074219 C 92.648438 303.9375 92.914062 306.792969 93.308594 309.636719 Z M 93.308594 309.636719 "/>
<use xlink:href="#surface15" mask="url(#mask3)"/>
<path style=" stroke:none;fill-rule:nonzero;fill:rgb(18.431373%,18.039216%,25.490196%);fill-opacity:1;" d="M 75.914062 259.117188 C 74.207031 263.722656 76.71875 268.699219 78.898438 273.097656 C 84.277344 283.9375 88.007812 295.5 91.722656 307.015625 C 92 307.878906 92.277344 308.820312 91.96875 309.671875 C 91.699219 310.277344 91.265625 310.792969 90.714844 311.160156 C 88.15625 313.105469 84.894531 313.800781 81.84375 314.816406 C 78.898438 315.800781 76.074219 317.125 73.433594 318.765625 C 71.222656 320.132812 69.152344 321.714844 67.085938 323.296875 L 60.511719 328.324219 C 60.085938 328.613281 59.710938 328.972656 59.410156 329.390625 C 58.777344 330.386719 59.035156 331.683594 59.351562 332.824219 C 60.1875 335.835938 61.265625 338.777344 62.570312 341.621094 C 62.789062 342.242188 63.195312 342.78125 63.738281 343.152344 C 64.765625 343.703125 66.023438 342.972656 66.804688 342.109375 C 67.589844 341.246094 68.269531 340.171875 69.375 339.800781 C 70.476562 339.429688 71.691406 339.878906 72.84375 339.71875 C 74.710938 339.453125 75.945312 337.734375 77.289062 336.417969 C 82.78125 331.023438 91.949219 331.414062 97.988281 326.648438 C 98.863281 325.867188 99.785156 325.144531 100.757812 324.484375 C 101.777344 323.882812 102.933594 323.550781 103.996094 323.015625 C 107.21875 321.390625 109.242188 318.035156 110.328125 314.589844 C 111.414062 311.148438 111.722656 307.511719 112.503906 303.984375 C 112.90625 302.164062 113.4375 300.359375 113.617188 298.5 C 113.730469 296.773438 113.691406 295.039062 113.503906 293.316406 L 111.324219 266.332031 C 111.144531 264.136719 110.96875 261.9375 110.625 259.757812 C 104.152344 259.992188 97.683594 260.25 91.207031 260.328125 C 86.054688 260.386719 80.804688 260.75 75.914062 259.117188 Z M 75.914062 259.117188 "/>
<path style=" stroke:none;fill-rule:nonzero;fill:rgb(18.431373%,18.039216%,25.490196%);fill-opacity:1;" d="M 73.535156 265.429688 C 74.414062 266.84375 76.550781 266.816406 78.023438 266.039062 C 79.496094 265.265625 80.636719 263.964844 82.113281 263.195312 C 84.09375 262.164062 86.441406 262.203125 88.675781 262.265625 C 92.210938 262.367188 95.789062 262.472656 99.191406 263.441406 C 102.710938 264.445312 106.136719 266.375 109.777344 265.992188 C 110.410156 265.925781 111.101562 265.742188 111.445312 265.207031 C 111.648438 264.820312 111.742188 264.382812 111.722656 263.945312 L 111.839844 260.765625 C 111.914062 260.214844 111.824219 259.65625 111.585938 259.152344 C 111.28125 258.734375 110.863281 258.414062 110.378906 258.230469 C 105.203125 255.71875 99.296875 255.253906 93.542969 255.054688 C 90.621094 254.953125 87.695312 254.914062 84.769531 254.929688 C 82.289062 254.945312 79.308594 254.585938 76.894531 255.25 C 73.65625 256.140625 71.890625 262.785156 73.535156 265.429688 Z M 73.535156 265.429688 "/>
<path style=" stroke:none;fill-rule:nonzero;fill:rgb(42.352941%,38.823529%,100%);fill-opacity:1;" d="M 106.054688 182.101562 C 99.269531 182.039062 93.121094 177.558594 86.335938 177.449219 C 85.515625 177.390625 84.695312 177.53125 83.941406 177.859375 C 82.996094 178.339844 82.375 179.257812 81.65625 180.039062 C 79.648438 182.210938 76.742188 183.375 74.683594 185.496094 C 72.75 187.488281 71.675781 190.453125 72.4375 193.121094 C 73.199219 195.789062 76.082031 197.835938 78.777344 197.195312 C 79.867188 193.671875 82.109375 190.621094 85.144531 188.535156 C 86.726562 187.523438 88.390625 186.648438 90.121094 185.921875 C 93.171875 184.539062 96.582031 183.128906 99.765625 184.167969 C 100.9375 184.609375 102.046875 185.214844 103.054688 185.960938 L 108.363281 189.53125 C 107.742188 187.089844 107.1875 184.351562 106.054688 182.101562 Z M 106.054688 182.101562 "/>
<path style=" stroke:none;fill-rule:nonzero;fill:rgb(42.352941%,38.823529%,100%);fill-opacity:1;" d="M 77.996094 194.832031 C 77.097656 195.957031 78.394531 197.589844 78.195312 199.015625 C 78.0625 199.964844 77.28125 200.691406 76.957031 201.589844 C 76.621094 202.523438 76.800781 203.558594 76.671875 204.542969 C 76.542969 205.257812 76.355469 205.960938 76.105469 206.644531 C 75.535156 208.6875 75.136719 210.769531 74.914062 212.878906 L 73.726562 221.757812 C 73.519531 223.09375 73.394531 224.441406 73.351562 225.792969 C 73.410156 226.800781 73.34375 227.816406 73.148438 228.808594 C 72.886719 229.777344 72.304688 230.625 71.910156 231.550781 C 71.519531 232.476562 71.339844 233.597656 71.867188 234.453125 C 70.09375 235.929688 69.570312 238.832031 70.808594 240.777344 C 71.042969 241.082031 71.226562 241.421875 71.355469 241.785156 C 71.421875 242.292969 71.339844 242.808594 71.113281 243.269531 L 69.914062 246.472656 C 69.605469 247.292969 69.507812 248.539062 70.363281 248.726562 C 69.65625 249.464844 69.101562 250.335938 68.742188 251.292969 C 68.382812 252.265625 68.546875 253.355469 69.171875 254.183594 C 69.472656 254.445312 69.726562 254.753906 69.925781 255.097656 C 70.042969 255.574219 70.011719 256.078125 69.839844 256.539062 C 69.476562 257.953125 69.710938 259.453125 70.492188 260.6875 C 71.308594 261.917969 72.777344 262.546875 74.230469 262.289062 C 76.632812 261.746094 78.792969 260.890625 81.214844 261.335938 C 86.429688 262.292969 91.664062 263.257812 96.714844 264.871094 C 102.480469 266.710938 108.0625 269.414062 114.089844 269.980469 C 114.484375 270.0625 114.898438 270 115.25 269.800781 C 115.558594 269.507812 115.75 269.117188 115.789062 268.695312 C 116.410156 265.78125 117.027344 262.867188 117.648438 259.957031 C 118.402344 256.726562 118.972656 253.457031 119.363281 250.164062 C 119.574219 248.039062 119.632812 245.902344 119.695312 243.769531 L 120.175781 226.777344 C 120.398438 224.273438 120.066406 221.75 119.199219 219.390625 L 116.4375 210.570312 C 114.859375 205.535156 111.246094 201.070312 109.960938 195.953125 C 109.144531 192.71875 108.542969 189.242188 106.359375 186.71875 C 103.246094 183.121094 97.859375 182.5625 93.144531 183.179688 C 91.011719 183.460938 88.863281 183.941406 87.023438 185.046875 C 84.890625 186.328125 83.320312 188.339844 81.804688 190.308594 C 80.550781 191.929688 79.277344 193.234375 77.996094 194.832031 Z M 77.996094 194.832031 "/>
<path style=" stroke:none;fill-rule:nonzero;fill:rgb(98.431373%,74.509804%,74.509804%);fill-opacity:1;" d="M 89.007812 244.808594 C 89.394531 246.488281 90.210938 248.03125 90.710938 249.679688 C 91.546875 252.441406 91.476562 255.410156 92.3125 258.171875 C 92.664062 259.328125 93.171875 260.441406 93.421875 261.625 C 94.007812 264.386719 93.152344 267.242188 92.089844 269.855469 C 91.023438 272.46875 89.730469 275.046875 89.382812 277.847656 C 89.140625 279.820312 89.488281 282.046875 91.007812 283.328125 C 92.585938 284.65625 94.878906 284.566406 96.933594 284.386719 C 97.667969 284.367188 98.398438 284.214844 99.082031 283.941406 C 100.652344 283.195312 101.3125 281.335938 101.679688 279.636719 C 102.910156 273.9375 102.558594 268.035156 102.203125 262.214844 L 101.265625 247 C 101.085938 244.070312 100.894531 241.082031 99.992188 238.269531 C 99.664062 237.246094 99.09375 235.179688 98.160156 234.523438 C 97.234375 233.878906 94.59375 233.847656 93.449219 233.796875 C 88.078125 233.542969 88.136719 241.046875 89.007812 244.808594 Z M 89.007812 244.808594 "/>
<path style=" stroke:none;fill-rule:nonzero;fill:rgb(18.431373%,18.039216%,25.490196%);fill-opacity:1;" d="M 94.960938 188.632812 C 93.863281 188.058594 92.480469 188.304688 91.417969 188.945312 C 90.394531 189.648438 89.5 190.519531 88.765625 191.523438 C 86.398438 194.417969 83.886719 197.742188 84.238281 201.46875 C 84.371094 202.867188 84.90625 204.191406 85.269531 205.546875 C 86.855469 211.492188 85.097656 217.78125 85.300781 223.933594 C 85.417969 227.488281 86.191406 230.988281 86.960938 234.457031 C 87.117188 235.167969 87.367188 235.988281 88.054688 236.226562 C 88.570312 236.40625 89.125 236.175781 89.632812 235.980469 C 93.484375 234.558594 97.785156 235.101562 101.164062 237.4375 C 102.433594 236.757812 101.957031 234.609375 101.671875 233.195312 C 100.824219 228.988281 101.976562 224.652344 103.371094 220.601562 C 104.769531 216.546875 106.441406 212.496094 106.671875 208.214844 C 106.933594 203.363281 105.328125 198.628906 103.742188 194.035156 C 103.394531 193.035156 103.019531 191.984375 102.214844 191.289062 C 101.527344 190.78125 100.742188 190.417969 99.90625 190.234375 C 98.21875 189.734375 96.515625 189.449219 94.960938 188.632812 Z M 94.960938 188.632812 "/>
</g>
</svg>
