<?xml version="1.0" encoding="UTF-8"?>
<svg xmlns="http://www.w3.org/2000/svg" xmlns:xlink="http://www.w3.org/1999/xlink" width="400pt" height="409pt" viewBox="0 0 400 409" version="1.1">
<defs>
<linearGradient id="linear0" gradientUnits="userSpaceOnUse" x1="459.12" y1="621" x2="459.12" y2="193.38" gradientTransform="matrix(0.526749,-0.148029,0.148148,0.526327,-184.794129,16.726839)">
<stop offset="0" style="stop-color:rgb(50.196078%,50.196078%,50.196078%);stop-opacity:0.25098;"/>
<stop offset="0.54" style="stop-color:rgb(50.196078%,50.196078%,50.196078%);stop-opacity:0.121569;"/>
<stop offset="1" style="stop-color:rgb(50.196078%,50.196078%,50.196078%);stop-opacity:0.101961;"/>
</linearGradient>
<linearGradient id="linear1" gradientUnits="userSpaceOnUse" x1="459.12" y1="355.96" x2="459.12" y2="192.97" gradientTransform="matrix(0.529072,-0.145316,0.145433,0.528649,-184.739325,16.63144)">
<stop offset="0" style="stop-color:rgb(70.196078%,70.196078%,70.196078%);stop-opacity:0.25098;"/>
<stop offset="0.54" style="stop-color:rgb(70.196078%,70.196078%,70.196078%);stop-opacity:0.101961;"/>
<stop offset="1" style="stop-color:rgb(70.196078%,70.196078%,70.196078%);stop-opacity:0.0509804;"/>
</linearGradient>
<filter id="alpha" filterUnits="objectBoundingBox" x="0%" y="0%" width="100%" height="100%">
  <feColorMatrix type="matrix" in="SourceGraphic" values="0 0 0 0 1 0 0 0 0 1 0 0 0 0 1 0 0 0 1 0"/>
</filter>
<mask id="mask0">
  <g filter="url(#alpha)">
<rect x="0" y="0" width="400" height="409" style="fill:rgb(0%,0%,0%);fill-opacity:0.2;stroke:none;"/>
  </g>
</mask>
<clipPath id="clip1">
  <rect x="0" y="0" width="400" height="409"/>
</clipPath>
<g id="surface5" clip-path="url(#clip1)">
<path style=" stroke:none;fill-rule:nonzero;fill:rgb(0%,0%,0%);fill-opacity:1;" d="M 97.644531 103.628906 L 139.964844 92.007812 C 140.867188 91.757812 141.800781 92.289062 142.046875 93.191406 L 142.210938 93.78125 C 142.460938 94.683594 141.929688 95.617188 141.027344 95.863281 L 98.707031 107.488281 C 97.800781 107.738281 96.871094 107.207031 96.621094 106.304688 L 96.457031 105.710938 C 96.210938 104.808594 96.742188 103.878906 97.644531 103.628906 Z M 97.644531 103.628906 "/>
</g>
<linearGradient id="linear2" gradientUnits="userSpaceOnUse" x1="890.03" y1="384.1" x2="893.49" y2="466.67" gradientTransform="matrix(-0.526749,0.153512,-0.153635,-0.526327,578.776406,198.134732)">
<stop offset="0" style="stop-color:rgb(0%,0%,0%);stop-opacity:0.121569;"/>
<stop offset="0.55" style="stop-color:rgb(0%,0%,0%);stop-opacity:0.0901961;"/>
<stop offset="1" style="stop-color:rgb(0%,0%,0%);stop-opacity:0.0196078;"/>
</linearGradient>
<linearGradient id="linear3" gradientUnits="userSpaceOnUse" x1="630.78" y1="714.25" x2="630.78" y2="285.78" gradientTransform="matrix(0.548697,0,0,0.548257,0,0)">
<stop offset="0" style="stop-color:rgb(50.196078%,50.196078%,50.196078%);stop-opacity:0.25098;"/>
<stop offset="0.54" style="stop-color:rgb(50.196078%,50.196078%,50.196078%);stop-opacity:0.121569;"/>
<stop offset="1" style="stop-color:rgb(50.196078%,50.196078%,50.196078%);stop-opacity:0.101961;"/>
</linearGradient>
<linearGradient id="linear4" gradientUnits="userSpaceOnUse" x1="737.4" y1="672.7" x2="737.4" y2="245.08" gradientTransform="matrix(0.545641,-0.0577843,0.0578306,0.545204,-144.680905,2.03177)">
<stop offset="0" style="stop-color:rgb(50.196078%,50.196078%,50.196078%);stop-opacity:0.25098;"/>
<stop offset="0.54" style="stop-color:rgb(50.196078%,50.196078%,50.196078%);stop-opacity:0.121569;"/>
<stop offset="1" style="stop-color:rgb(50.196078%,50.196078%,50.196078%);stop-opacity:0.101961;"/>
</linearGradient>
<linearGradient id="linear5" gradientUnits="userSpaceOnUse" x1="737.4" y1="407.66" x2="737.4" y2="244.68" gradientTransform="matrix(0.545641,-0.0577843,0.0578306,0.545204,-144.677691,2.031397)">
<stop offset="0" style="stop-color:rgb(70.196078%,70.196078%,70.196078%);stop-opacity:0.25098;"/>
<stop offset="0.54" style="stop-color:rgb(70.196078%,70.196078%,70.196078%);stop-opacity:0.101961;"/>
<stop offset="1" style="stop-color:rgb(70.196078%,70.196078%,70.196078%);stop-opacity:0.0509804;"/>
</linearGradient>
<mask id="mask1">
  <g filter="url(#alpha)">
<rect x="0" y="0" width="400" height="409" style="fill:rgb(0%,0%,0%);fill-opacity:0.2;stroke:none;"/>
  </g>
</mask>
<clipPath id="clip2">
  <rect x="0" y="0" width="400" height="409"/>
</clipPath>
<g id="surface8" clip-path="url(#clip2)">
<path style=" stroke:none;fill-rule:nonzero;fill:rgb(0%,0%,0%);fill-opacity:1;" d="M 274.703125 145.671875 L 318.347656 141.050781 C 319.28125 140.953125 320.113281 141.625 320.214844 142.558594 L 320.277344 143.167969 C 320.375 144.097656 319.703125 144.933594 318.769531 145.03125 L 275.125 149.652344 C 274.195312 149.75 273.359375 149.078125 273.261719 148.148438 L 273.195312 147.535156 C 273.097656 146.605469 273.773438 145.773438 274.703125 145.671875 Z M 274.703125 145.671875 "/>
</g>
<linearGradient id="linear6" gradientUnits="userSpaceOnUse" x1="612.39" y1="329.04" x2="615.85" y2="411.61" gradientTransform="matrix(-0.544905,0.0643457,-0.0643973,-0.544468,579.314129,304.743378)">
<stop offset="0" style="stop-color:rgb(0%,0%,0%);stop-opacity:0.121569;"/>
<stop offset="0.55" style="stop-color:rgb(0%,0%,0%);stop-opacity:0.0901961;"/>
<stop offset="1" style="stop-color:rgb(0%,0%,0%);stop-opacity:0.0196078;"/>
</linearGradient>
<linearGradient id="linear7" gradientUnits="userSpaceOnUse" x1="382.92" y1="428.03" x2="382.92" y2="0.4" gradientTransform="matrix(0.548697,0,0,0.548257,0,0)">
<stop offset="0" style="stop-color:rgb(50.196078%,50.196078%,50.196078%);stop-opacity:0.25098;"/>
<stop offset="0.54" style="stop-color:rgb(50.196078%,50.196078%,50.196078%);stop-opacity:0.121569;"/>
<stop offset="1" style="stop-color:rgb(50.196078%,50.196078%,50.196078%);stop-opacity:0.101961;"/>
</linearGradient>
<linearGradient id="linear8" gradientUnits="userSpaceOnUse" x1="382.92" y1="162.99" x2="382.92" y2="0" gradientTransform="matrix(0.548697,0,0,0.548257,0,0)">
<stop offset="0" style="stop-color:rgb(70.196078%,70.196078%,70.196078%);stop-opacity:0.25098;"/>
<stop offset="0.54" style="stop-color:rgb(70.196078%,70.196078%,70.196078%);stop-opacity:0.101961;"/>
<stop offset="1" style="stop-color:rgb(70.196078%,70.196078%,70.196078%);stop-opacity:0.0509804;"/>
</linearGradient>
<mask id="mask2">
  <g filter="url(#alpha)">
<rect x="0" y="0" width="400" height="409" style="fill:rgb(0%,0%,0%);fill-opacity:0.2;stroke:none;"/>
  </g>
</mask>
<clipPath id="clip3">
  <rect x="0" y="0" width="400" height="409"/>
</clipPath>
<g id="surface11" clip-path="url(#clip3)">
<path style=" stroke:none;fill-rule:nonzero;fill:rgb(0%,0%,0%);fill-opacity:1;" d="M 207.394531 52.867188 L 251.285156 52.867188 C 252.222656 52.867188 252.980469 53.625 252.980469 54.5625 L 252.980469 55.175781 C 252.980469 56.113281 252.222656 56.871094 251.285156 56.871094 L 207.394531 56.871094 C 206.460938 56.871094 205.699219 56.113281 205.699219 55.175781 L 205.699219 54.5625 C 205.699219 53.625 206.460938 52.867188 207.394531 52.867188 Z M 207.394531 52.867188 "/>
</g>
<linearGradient id="linear9" gradientUnits="userSpaceOnUse" x1="729.45" y1="498.21" x2="732.9" y2="580.79" gradientTransform="matrix(-0.548697,0.00548257,-0.00548697,-0.548257,558.875171,335.094906)">
<stop offset="0" style="stop-color:rgb(0%,0%,0%);stop-opacity:0.121569;"/>
<stop offset="0.55" style="stop-color:rgb(0%,0%,0%);stop-opacity:0.0901961;"/>
<stop offset="1" style="stop-color:rgb(0%,0%,0%);stop-opacity:0.0196078;"/>
</linearGradient>
<linearGradient id="linear10" gradientUnits="userSpaceOnUse" x1="328.81" y1="746.14" x2="328.81" y2="254.91" gradientTransform="matrix(0.548697,0,0,0.548257,0,0)">
<stop offset="0" style="stop-color:rgb(50.196078%,50.196078%,50.196078%);stop-opacity:0.25098;"/>
<stop offset="0.54" style="stop-color:rgb(50.196078%,50.196078%,50.196078%);stop-opacity:0.121569;"/>
<stop offset="1" style="stop-color:rgb(50.196078%,50.196078%,50.196078%);stop-opacity:0.101961;"/>
</linearGradient>
<linearGradient id="linear11" gradientUnits="userSpaceOnUse" x1="329.34" y1="675.01" x2="329.34" y2="373.01" gradientTransform="matrix(0.548697,0,0,0.548257,0,0)">
<stop offset="0" style="stop-color:rgb(50.196078%,50.196078%,50.196078%);stop-opacity:0.25098;"/>
<stop offset="0.54" style="stop-color:rgb(50.196078%,50.196078%,50.196078%);stop-opacity:0.121569;"/>
<stop offset="1" style="stop-color:rgb(50.196078%,50.196078%,50.196078%);stop-opacity:0.101961;"/>
</linearGradient>
<linearGradient id="linear12" gradientUnits="userSpaceOnUse" x1="683.6" y1="52.97" x2="690.12" y2="208.87" gradientTransform="matrix(-0.548697,0.00548257,-0.00548697,-0.548257,558.875171,335.094906)">
<stop offset="0" style="stop-color:rgb(0%,0%,0%);stop-opacity:0.121569;"/>
<stop offset="0.55" style="stop-color:rgb(0%,0%,0%);stop-opacity:0.0901961;"/>
<stop offset="1" style="stop-color:rgb(0%,0%,0%);stop-opacity:0.0196078;"/>
</linearGradient>
</defs>
<g id="surface1">
<path style=" stroke:none;fill-rule:nonzero;fill:url(#linear0);" d="M 0.0351562 74.617188 L 171.359375 26.46875 L 234.710938 251.539062 L 63.386719 299.683594 Z M 0.0351562 74.617188 "/>
<path style=" stroke:none;fill-rule:nonzero;fill:url(#linear1);" d="M -0.00390625 75.617188 L 172.472656 28.246094 L 196.175781 114.410156 L 23.699219 161.785156 Z M -0.00390625 75.617188 "/>
<path style=" stroke:none;fill-rule:nonzero;fill:rgb(93.333333%,93.333333%,93.333333%);fill-opacity:1;" d="M 2.9375 76.925781 L 170.617188 30.871094 L 231.359375 251.671875 L 63.683594 297.726562 Z M 2.9375 76.925781 "/>
<path style=" stroke:none;fill-rule:nonzero;fill:rgb(42.352941%,38.823529%,100%);fill-opacity:1;" d="M 2.6875 76.769531 L 170.75 30.609375 L 193.902344 114.761719 L 25.835938 160.925781 Z M 2.6875 76.769531 "/>
<path style=" stroke:none;fill-rule:nonzero;fill:rgb(74.117647%,74.117647%,74.117647%);fill-opacity:1;" d="M 67.71875 174.960938 L 113.308594 162.4375 L 114.261719 165.910156 L 68.671875 178.433594 Z M 67.71875 174.960938 "/>
<path style=" stroke:none;fill-rule:nonzero;fill:rgb(96.078431%,96.078431%,96.078431%);fill-opacity:1;" d="M 71.542969 188.859375 L 117.132812 176.339844 L 118.085938 179.8125 L 72.496094 192.332031 Z M 71.542969 188.859375 "/>
<path style=" stroke:none;fill-rule:nonzero;fill:rgb(41.176471%,94.117647%,68.235294%);fill-opacity:1;" d="M 69.632812 181.910156 L 188.628906 149.226562 L 189.585938 152.699219 L 70.585938 185.382812 Z M 69.632812 181.910156 "/>
<path style=" stroke:none;fill-rule:nonzero;fill:rgb(100%,100%,100%);fill-opacity:1;" d="M 77.210938 90.136719 L 122.804688 77.617188 L 123.757812 81.089844 L 78.167969 93.613281 Z M 77.210938 90.136719 "/>
<path style=" stroke:none;fill-rule:nonzero;fill:rgb(100%,100%,100%);fill-opacity:1;" d="M 79.335938 97.855469 L 152.746094 77.695312 L 153.699219 81.167969 L 80.292969 101.332031 Z M 79.335938 97.855469 "/>
<use xlink:href="#surface5" mask="url(#mask0)"/>
<path style=" stroke:none;fill-rule:nonzero;fill:rgb(41.176471%,94.117647%,68.235294%);fill-opacity:1;" d="M 57.441406 182.144531 C 58.675781 186.621094 56.039062 191.25 51.558594 192.480469 C 47.074219 193.714844 42.445312 191.082031 41.210938 186.601562 C 39.980469 182.125 42.613281 177.496094 47.097656 176.261719 C 51.578125 175.03125 56.210938 177.664062 57.441406 182.144531 Z M 57.441406 182.144531 "/>
<path style=" stroke:none;fill-rule:nonzero;fill:rgb(74.117647%,74.117647%,74.117647%);fill-opacity:1;" d="M 76.964844 208.546875 L 122.554688 196.023438 L 123.511719 199.5 L 77.921875 212.019531 Z M 76.964844 208.546875 "/>
<path style=" stroke:none;fill-rule:nonzero;fill:rgb(96.078431%,96.078431%,96.078431%);fill-opacity:1;" d="M 80.785156 222.449219 L 126.375 209.925781 L 127.328125 213.398438 L 81.738281 225.921875 Z M 80.785156 222.449219 "/>
<path style=" stroke:none;fill-rule:nonzero;fill:rgb(87.843137%,87.843137%,87.843137%);fill-opacity:1;" d="M 78.875 215.5 L 197.871094 182.8125 L 198.828125 186.289062 L 79.828125 218.972656 Z M 78.875 215.5 "/>
<path style=" stroke:none;fill-rule:nonzero;fill:rgb(87.843137%,87.843137%,87.843137%);fill-opacity:1;" d="M 66.679688 215.734375 C 67.914062 220.210938 65.277344 224.839844 60.796875 226.070312 C 56.3125 227.300781 51.679688 224.667969 50.449219 220.191406 C 49.214844 215.710938 51.851562 211.082031 56.332031 209.851562 C 60.816406 208.621094 65.449219 211.253906 66.679688 215.734375 Z M 66.679688 215.734375 "/>
<path style=" stroke:none;fill-rule:nonzero;fill:rgb(74.117647%,74.117647%,74.117647%);fill-opacity:1;" d="M 86.199219 242.128906 L 131.789062 229.609375 L 132.746094 233.082031 L 87.15625 245.605469 Z M 86.199219 242.128906 "/>
<path style=" stroke:none;fill-rule:nonzero;fill:rgb(96.078431%,96.078431%,96.078431%);fill-opacity:1;" d="M 90.023438 256.027344 L 135.613281 243.503906 L 136.570312 246.976562 L 90.980469 259.5 Z M 90.023438 256.027344 "/>
<path style=" stroke:none;fill-rule:nonzero;fill:rgb(87.843137%,87.843137%,87.843137%);fill-opacity:1;" d="M 88.109375 249.082031 L 207.109375 216.398438 L 208.066406 219.871094 L 89.066406 252.554688 Z M 88.109375 249.082031 "/>
<path style=" stroke:none;fill-rule:nonzero;fill:rgb(87.843137%,87.843137%,87.843137%);fill-opacity:1;" d="M 75.921875 249.320312 C 77.15625 253.800781 74.519531 258.429688 70.039062 259.660156 C 65.554688 260.890625 60.921875 258.257812 59.691406 253.777344 C 58.457031 249.300781 61.09375 244.671875 65.574219 243.441406 C 70.058594 242.210938 74.691406 244.84375 75.921875 249.320312 Z M 75.921875 249.320312 "/>
<path style=" stroke:none;fill-rule:nonzero;fill:url(#linear2);" d="M 21.523438 115.253906 C 24.789062 126.5625 36.019531 133.632812 47.636719 131.691406 C 59.253906 129.753906 67.574219 119.421875 66.984375 107.667969 C 66.394531 95.914062 57.082031 86.464844 45.328125 85.699219 L 46.972656 91.4375 C 48.160156 95.601562 45.757812 99.945312 41.597656 101.152344 C 37.429688 102.339844 33.085938 99.9375 31.875 95.78125 L 30.226562 90.039062 C 22.296875 95.769531 18.816406 105.855469 21.523438 115.253906 Z M 21.523438 115.253906 "/>
<path style=" stroke:none;fill-rule:nonzero;fill:rgb(42.352941%,38.823529%,100%);fill-opacity:1;" d="M 65.628906 100.605469 C 62.503906 89.253906 51.355469 82.050781 39.714844 83.851562 C 28.070312 85.652344 19.628906 95.886719 20.082031 107.652344 C 20.535156 119.414062 29.738281 128.96875 41.488281 129.871094 L 39.902344 124.113281 C 38.765625 119.9375 41.214844 115.628906 45.386719 114.464844 C 49.566406 113.328125 53.882812 115.777344 55.046875 119.949219 L 56.632812 125.703125 C 64.625 120.070312 68.222656 110.03125 65.628906 100.605469 Z M 65.628906 100.605469 "/>
<path style="fill-rule:nonzero;fill:rgb(100%,100%,100%);fill-opacity:1;stroke-width:1;stroke-linecap:butt;stroke-linejoin:miter;stroke:rgb(100%,100%,100%);stroke-opacity:1;stroke-miterlimit:10;" d="M 328.952559 266.029692 C 328.950842 275.007006 321.672706 282.279724 312.701573 282.281682 C 303.723574 282.281754 296.450091 275.006565 296.451808 266.029251 C 296.451636 257.058807 303.724797 249.777332 312.702795 249.777261 C 321.67204 249.782172 328.952388 257.059248 328.952559 266.029692 Z M 328.952559 266.029692 " transform="matrix(0.529072,-0.145316,0.145433,0.528649,-161.717421,8.497989)"/>
<path style="fill-rule:nonzero;fill:rgb(100%,100%,100%);fill-opacity:1;stroke-width:1;stroke-linecap:butt;stroke-linejoin:miter;stroke:rgb(100%,100%,100%);stroke-opacity:1;stroke-miterlimit:10;" d="M 318.093057 285.709397 C 310.482695 287.832602 306.018994 295.691308 308.090664 303.30777 L 310.981035 313.809794 C 320.784092 314.557903 330.544434 311.871836 338.589062 306.221832 L 335.698691 295.719807 C 333.584307 288.103346 325.717656 283.636067 318.093057 285.709397 Z M 318.093057 285.709397 " transform="matrix(0.548697,0,0,0.548257,-129.15775,-42.17744)"/>
<path style="fill-rule:nonzero;fill:rgb(100%,100%,100%);fill-opacity:1;stroke-width:1;stroke-linecap:butt;stroke-linejoin:miter;stroke:rgb(100%,100%,100%);stroke-opacity:1;stroke-miterlimit:10;" d="M 296.657324 269.507495 C 294.735156 267.427039 293.410996 264.862094 292.820107 262.090529 C 292.243457 259.290464 292.784512 256.383526 294.329365 253.982453 C 296.080674 251.410383 298.978164 249.871416 301.91125 248.809814 C 304.837217 247.748211 307.912686 247.057101 310.68915 245.667756 C 315.33083 243.323681 318.840566 239.212644 320.428135 234.260876 C 321.353623 236.469578 321.972988 238.799403 322.257754 241.179102 C 322.54252 243.587301 321.816367 246.002624 320.257275 247.862209 C 322.343184 246.102372 322.791689 248.75994 322.699141 250.448528 C 324.272471 251.55288 327.198437 250.997142 327.860518 252.799728 C 328.608027 254.573815 328.91415 256.497524 328.757529 258.406983 C 328.508359 260.309317 330.103047 263.088007 328.301904 263.729244 " transform="matrix(0.548697,0,0,0.548257,-129.15775,-42.17744)"/>
<path style=" stroke:none;fill-rule:nonzero;fill:rgb(100%,100%,100%);fill-opacity:1;" d="M 46.972656 93.375 C 46.972656 93.375 53.121094 92.25 51.292969 102.320312 "/>
<path style=" stroke:none;fill-rule:nonzero;fill:url(#linear3);" d="M 349.941406 391.59375 L 292.09375 391.59375 L 292.09375 156.679688 L 400.121094 156.679688 Z M 349.941406 391.59375 "/>
<path style=" stroke:none;fill-rule:nonzero;fill:rgb(74.117647%,74.117647%,74.117647%);fill-opacity:1;" d="M 347.0625 391.59375 L 290.355469 391.59375 L 290.355469 156.679688 L 396.246094 156.679688 Z M 347.0625 391.59375 "/>
<path style=" stroke:none;fill-rule:nonzero;fill:url(#linear4);" d="M 183.117188 102.4375 L 360.585938 83.644531 L 385.316406 316.78125 L 207.84375 335.578125 Z M 183.117188 102.4375 "/>
<path style=" stroke:none;fill-rule:nonzero;fill:url(#linear5);" d="M 182.886719 102.242188 L 360.765625 83.402344 L 370.191406 172.265625 L 192.3125 191.101562 Z M 182.886719 102.242188 "/>
<path style=" stroke:none;fill-rule:nonzero;fill:rgb(96.078431%,96.078431%,96.078431%);fill-opacity:1;" d="M 185.578125 104 L 358.507812 85.6875 L 382.660156 313.402344 L 209.730469 331.714844 Z M 185.578125 104 "/>
<path style=" stroke:none;fill-rule:nonzero;fill:rgb(42.352941%,38.823529%,100%);fill-opacity:1;" d="M 185.355469 103.804688 L 358.683594 85.449219 L 367.890625 172.242188 L 194.5625 190.597656 Z M 185.355469 103.804688 "/>
<path style=" stroke:none;fill-rule:nonzero;fill:rgb(74.117647%,74.117647%,74.117647%);fill-opacity:1;" d="M 233.617188 211.226562 L 280.636719 206.246094 L 281.015625 209.828125 L 234 214.808594 Z M 233.617188 211.226562 "/>
<path style=" stroke:none;fill-rule:nonzero;fill:rgb(96.078431%,96.078431%,96.078431%);fill-opacity:1;" d="M 235.136719 225.558594 L 282.15625 220.578125 L 282.535156 224.160156 L 235.519531 229.140625 Z M 235.136719 225.558594 "/>
<path style=" stroke:none;fill-rule:nonzero;fill:rgb(41.176471%,94.117647%,68.235294%);fill-opacity:1;" d="M 234.378906 218.390625 L 357.101562 205.394531 L 357.484375 208.976562 L 234.757812 221.972656 Z M 234.378906 218.390625 "/>
<path style=" stroke:none;fill-rule:nonzero;fill:rgb(100%,100%,100%);fill-opacity:1;" d="M 256.734375 129.058594 L 303.753906 124.082031 L 304.132812 127.664062 L 257.117188 132.640625 Z M 256.734375 129.058594 "/>
<path style=" stroke:none;fill-rule:nonzero;fill:rgb(100%,100%,100%);fill-opacity:1;" d="M 257.574219 137.027344 L 333.285156 129.007812 L 333.664062 132.589844 L 257.957031 140.609375 Z M 257.574219 137.027344 "/>
<use xlink:href="#surface8" mask="url(#mask1)"/>
<path style=" stroke:none;fill-rule:nonzero;fill:rgb(41.176471%,94.117647%,68.235294%);fill-opacity:1;" d="M 222.308594 216.648438 C 222.800781 221.269531 219.449219 225.410156 214.828125 225.898438 C 210.203125 226.390625 206.058594 223.042969 205.570312 218.421875 C 205.078125 213.804688 208.429688 209.664062 213.050781 209.171875 C 217.675781 208.683594 221.820312 212.03125 222.308594 216.648438 Z M 222.308594 216.648438 "/>
<path style=" stroke:none;fill-rule:nonzero;fill:rgb(74.117647%,74.117647%,74.117647%);fill-opacity:1;" d="M 237.296875 245.859375 L 284.3125 240.878906 L 284.691406 244.460938 L 237.675781 249.441406 Z M 237.296875 245.859375 "/>
<path style=" stroke:none;fill-rule:nonzero;fill:rgb(96.078431%,96.078431%,96.078431%);fill-opacity:1;" d="M 238.816406 260.191406 L 285.832031 255.214844 L 286.214844 258.796875 L 239.195312 263.773438 Z M 238.816406 260.191406 "/>
<path style=" stroke:none;fill-rule:nonzero;fill:rgb(87.843137%,87.843137%,87.843137%);fill-opacity:1;" d="M 238.054688 253.027344 L 360.777344 240.03125 L 361.160156 243.613281 L 238.433594 256.609375 Z M 238.054688 253.027344 "/>
<path style=" stroke:none;fill-rule:nonzero;fill:rgb(87.843137%,87.843137%,87.843137%);fill-opacity:1;" d="M 225.984375 251.285156 C 226.476562 255.902344 223.125 260.046875 218.503906 260.535156 C 213.878906 261.023438 209.734375 257.675781 209.246094 253.058594 C 208.757812 248.4375 212.105469 244.296875 216.730469 243.808594 C 221.351562 243.316406 225.496094 246.664062 225.984375 251.285156 Z M 225.984375 251.285156 "/>
<path style=" stroke:none;fill-rule:nonzero;fill:rgb(74.117647%,74.117647%,74.117647%);fill-opacity:1;" d="M 240.96875 280.496094 L 287.984375 275.515625 L 288.363281 279.097656 L 241.347656 284.078125 Z M 240.96875 280.496094 "/>
<path style=" stroke:none;fill-rule:nonzero;fill:rgb(96.078431%,96.078431%,96.078431%);fill-opacity:1;" d="M 242.488281 294.828125 L 289.503906 289.847656 L 289.882812 293.429688 L 242.867188 298.410156 Z M 242.488281 294.828125 "/>
<path style=" stroke:none;fill-rule:nonzero;fill:rgb(87.843137%,87.843137%,87.843137%);fill-opacity:1;" d="M 241.726562 287.660156 L 364.449219 274.664062 L 364.832031 278.246094 L 242.105469 291.242188 Z M 241.726562 287.660156 "/>
<path style=" stroke:none;fill-rule:nonzero;fill:rgb(87.843137%,87.843137%,87.843137%);fill-opacity:1;" d="M 229.65625 285.917969 C 230.148438 290.539062 226.796875 294.679688 222.175781 295.167969 C 217.550781 295.660156 213.40625 292.3125 212.917969 287.691406 C 212.425781 283.074219 215.777344 278.933594 220.402344 278.441406 C 225.023438 277.953125 229.167969 281.300781 229.65625 285.917969 Z M 229.65625 285.917969 "/>
<path style=" stroke:none;fill-rule:nonzero;fill:url(#linear6);" d="M 197.695312 144.84375 C 199.070312 156.539062 209 165.34375 220.78125 165.320312 C 232.566406 165.296875 242.460938 156.449219 243.789062 144.75 C 245.113281 133.050781 237.453125 122.21875 225.976562 119.558594 L 226.675781 125.492188 C 227.15625 129.777344 224.097656 133.652344 219.8125 134.179688 C 215.507812 134.675781 211.609375 131.605469 211.089844 127.304688 L 210.386719 121.375 C 201.625 125.738281 196.546875 135.128906 197.695312 144.84375 Z M 197.695312 144.84375 "/>
<path style=" stroke:none;fill-rule:nonzero;fill:rgb(42.352941%,38.823529%,100%);fill-opacity:1;" d="M 243.589844 137.535156 C 242.34375 125.832031 232.515625 116.917969 220.738281 116.808594 C 208.957031 116.699219 198.964844 125.425781 197.5 137.105469 C 196.035156 148.785156 203.5625 159.707031 215.007812 162.503906 L 214.375 156.566406 C 213.929688 152.257812 217.050781 148.398438 221.359375 147.929688 C 225.671875 147.484375 229.535156 150.605469 230.003906 154.910156 L 230.632812 160.847656 C 239.4375 156.582031 244.621094 147.257812 243.589844 137.535156 Z M 243.589844 137.535156 "/>
<path style="fill-rule:nonzero;fill:rgb(100%,100%,100%);fill-opacity:1;stroke-width:1;stroke-linecap:butt;stroke-linejoin:miter;stroke:rgb(100%,100%,100%);stroke-opacity:1;stroke-miterlimit:10;" d="M 652.952228 326.463493 C 652.953632 335.433912 645.675079 342.7085 636.697526 342.709912 C 627.727052 342.712074 620.451553 335.435373 620.450899 326.457868 C 620.449495 317.487449 627.728048 310.212861 636.698522 310.210699 C 645.676075 310.209287 652.951574 317.485988 652.952228 326.463493 Z M 652.952228 326.463493 " transform="matrix(0.545641,-0.0577843,0.0578306,0.545204,-146.090535,-4.391542)"/>
<path style="fill-rule:nonzero;fill:rgb(100%,100%,100%);fill-opacity:1;stroke-width:1;stroke-linecap:butt;stroke-linejoin:miter;stroke:rgb(100%,100%,100%);stroke-opacity:1;stroke-miterlimit:10;" d="M 638.817461 346.747963 C 630.965049 347.602945 625.276855 354.642294 626.088438 362.501 L 627.241738 373.330768 C 636.795625 375.660593 646.86209 374.598991 655.718301 370.331207 L 654.572119 359.501439 C 653.724941 351.635608 646.684111 345.942855 638.817461 346.747963 Z M 638.817461 346.747963 " transform="matrix(0.548697,0,0,0.548257,-129.15775,-42.17744)"/>
<path style="fill-rule:nonzero;fill:rgb(100%,100%,100%);fill-opacity:1;stroke-width:1;stroke-linecap:butt;stroke-linejoin:miter;stroke:rgb(100%,100%,100%);stroke-opacity:1;stroke-miterlimit:10;" d="M 620.300576 327.290005 C 618.734365 324.924556 617.844473 322.174365 617.709209 319.338676 C 617.595303 316.488737 618.599102 313.710047 620.507031 311.586842 C 622.649893 309.328266 625.768076 308.280913 628.829307 307.710925 C 631.890537 307.140937 635.001602 306.998441 637.99876 306.000962 C 642.960801 304.433496 647.089902 300.949445 649.460576 296.318295 C 650.015869 298.64812 650.250801 301.049193 650.151133 303.443142 C 650.037227 305.86559 648.926641 308.131291 647.089902 309.713007 C 649.417861 308.309412 649.439219 311.002605 649.090381 312.662694 C 650.457256 314.002165 653.440176 313.930917 653.803252 315.819001 C 654.251758 317.685711 654.251758 319.630795 653.803252 321.497505 C 653.24084 323.32859 654.372783 326.342401 652.479092 326.670144 " transform="matrix(0.548697,0,0,0.548257,-129.15775,-42.17744)"/>
<path style=" stroke:none;fill-rule:nonzero;fill:rgb(100%,100%,100%);fill-opacity:1;" d="M 226.359375 127.375 C 226.359375 127.375 232.605469 127.261719 229.175781 136.90625 "/>
<path style=" stroke:none;fill-rule:nonzero;fill:url(#linear7);" d="M 120.878906 0.21875 L 299.339844 0.21875 L 299.339844 234.664062 L 120.878906 234.664062 Z M 120.878906 0.21875 "/>
<path style=" stroke:none;fill-rule:nonzero;fill:url(#linear8);" d="M 120.667969 0 L 299.542969 0 L 299.542969 89.359375 L 120.667969 89.359375 Z M 120.667969 0 "/>
<path style=" stroke:none;fill-rule:nonzero;fill:rgb(96.078431%,96.078431%,96.078431%);fill-opacity:1;" d="M 123.160156 2.035156 L 297.058594 2.035156 L 297.058594 231.023438 L 123.160156 231.023438 Z M 123.160156 2.035156 "/>
<path style=" stroke:none;fill-rule:nonzero;fill:rgb(42.352941%,38.823529%,100%);fill-opacity:1;" d="M 122.964844 1.820312 L 297.261719 1.820312 L 297.261719 89.097656 L 122.964844 89.097656 Z M 122.964844 1.820312 "/>
<path style=" stroke:none;fill-rule:nonzero;fill:rgb(74.117647%,74.117647%,74.117647%);fill-opacity:1;" d="M 159.621094 113.71875 L 206.902344 113.71875 L 206.902344 117.320312 L 159.621094 117.320312 Z M 159.621094 113.71875 "/>
<path style=" stroke:none;fill-rule:nonzero;fill:rgb(96.078431%,96.078431%,96.078431%);fill-opacity:1;" d="M 159.621094 128.132812 L 206.902344 128.132812 L 206.902344 131.734375 L 159.621094 131.734375 Z M 159.621094 128.132812 "/>
<path style=" stroke:none;fill-rule:nonzero;fill:rgb(41.176471%,94.117647%,68.235294%);fill-opacity:1;" d="M 159.621094 120.929688 L 283.035156 120.929688 L 283.035156 124.53125 L 159.621094 124.53125 Z M 159.621094 120.929688 "/>
<path style=" stroke:none;fill-rule:nonzero;fill:rgb(100%,100%,100%);fill-opacity:1;" d="M 191.277344 34.453125 L 238.558594 34.453125 L 238.558594 38.054688 L 191.277344 38.054688 Z M 191.277344 34.453125 "/>
<path style=" stroke:none;fill-rule:nonzero;fill:rgb(100%,100%,100%);fill-opacity:1;" d="M 191.277344 42.457031 L 267.40625 42.457031 L 267.40625 46.058594 L 191.277344 46.058594 Z M 191.277344 42.457031 "/>
<use xlink:href="#surface11" mask="url(#mask2)"/>
<path style=" stroke:none;fill-rule:nonzero;fill:rgb(41.176471%,94.117647%,68.235294%);fill-opacity:1;" d="M 147.808594 117.925781 C 147.808594 122.570312 144.039062 126.335938 139.390625 126.335938 C 134.742188 126.335938 130.972656 122.570312 130.972656 117.925781 C 130.972656 113.28125 134.742188 109.515625 139.390625 109.515625 C 144.039062 109.515625 147.808594 113.28125 147.808594 117.925781 Z M 147.808594 117.925781 "/>
<path style=" stroke:none;fill-rule:nonzero;fill:rgb(74.117647%,74.117647%,74.117647%);fill-opacity:1;" d="M 159.621094 148.550781 L 206.902344 148.550781 L 206.902344 152.152344 L 159.621094 152.152344 Z M 159.621094 148.550781 "/>
<path style=" stroke:none;fill-rule:nonzero;fill:rgb(96.078431%,96.078431%,96.078431%);fill-opacity:1;" d="M 159.621094 162.964844 L 206.902344 162.964844 L 206.902344 166.566406 L 159.621094 166.566406 Z M 159.621094 162.964844 "/>
<path style=" stroke:none;fill-rule:nonzero;fill:rgb(87.843137%,87.843137%,87.843137%);fill-opacity:1;" d="M 159.621094 155.761719 L 283.035156 155.761719 L 283.035156 159.363281 L 159.621094 159.363281 Z M 159.621094 155.761719 "/>
<path style=" stroke:none;fill-rule:nonzero;fill:rgb(87.843137%,87.843137%,87.843137%);fill-opacity:1;" d="M 147.808594 152.753906 C 147.808594 157.398438 144.039062 161.164062 139.390625 161.164062 C 134.742188 161.164062 130.972656 157.398438 130.972656 152.753906 C 130.972656 148.109375 134.742188 144.34375 139.390625 144.34375 C 144.039062 144.34375 147.808594 148.109375 147.808594 152.753906 Z M 147.808594 152.753906 "/>
<path style=" stroke:none;fill-rule:nonzero;fill:rgb(74.117647%,74.117647%,74.117647%);fill-opacity:1;" d="M 159.621094 183.386719 L 206.902344 183.386719 L 206.902344 186.988281 L 159.621094 186.988281 Z M 159.621094 183.386719 "/>
<path style=" stroke:none;fill-rule:nonzero;fill:rgb(96.078431%,96.078431%,96.078431%);fill-opacity:1;" d="M 159.621094 197.792969 L 206.902344 197.792969 L 206.902344 201.398438 L 159.621094 201.398438 Z M 159.621094 197.792969 "/>
<path style=" stroke:none;fill-rule:nonzero;fill:rgb(87.843137%,87.843137%,87.843137%);fill-opacity:1;" d="M 159.621094 190.589844 L 283.035156 190.589844 L 283.035156 194.191406 L 159.621094 194.191406 Z M 159.621094 190.589844 "/>
<path style=" stroke:none;fill-rule:nonzero;fill:rgb(87.843137%,87.843137%,87.843137%);fill-opacity:1;" d="M 147.808594 187.585938 C 147.808594 192.230469 144.039062 195.996094 139.390625 195.996094 C 134.742188 195.996094 130.972656 192.230469 130.972656 187.585938 C 130.972656 182.941406 134.742188 179.175781 139.390625 179.175781 C 144.039062 179.175781 147.808594 182.941406 147.808594 187.585938 Z M 147.808594 187.585938 "/>
<path style=" stroke:none;fill-rule:nonzero;fill:url(#linear9);" d="M 130.925781 43.933594 C 131.074219 55.699219 140.023438 65.492188 151.742188 66.699219 C 163.457031 67.90625 174.21875 60.148438 176.769531 48.660156 C 179.320312 37.167969 172.847656 25.59375 161.71875 21.738281 L 161.789062 27.707031 C 161.839844 32.054688 158.359375 35.621094 154.007812 35.675781 C 149.675781 35.714844 146.125 32.25 146.058594 27.921875 L 145.984375 21.953125 C 136.835938 25.378906 130.8125 34.167969 130.925781 43.933594 Z M 130.925781 43.933594 "/>
<path style=" stroke:none;fill-rule:nonzero;fill:rgb(42.352941%,38.823529%,100%);fill-opacity:1;" d="M 177.316406 41.492188 C 177.3125 29.722656 168.480469 19.824219 156.777344 18.476562 C 145.074219 17.125 134.21875 24.753906 131.53125 36.214844 C 128.84375 47.671875 135.175781 59.328125 146.261719 63.3125 L 146.261719 57.335938 C 146.273438 53.003906 149.785156 49.496094 154.117188 49.484375 C 158.453125 49.496094 161.964844 53.003906 161.976562 57.335938 L 161.976562 63.308594 C 171.179688 59.992188 177.316406 51.269531 177.316406 41.492188 Z M 177.316406 41.492188 "/>
<path style="fill-rule:nonzero;fill:rgb(100%,100%,100%);fill-opacity:1;stroke-width:1;stroke-linecap:butt;stroke-linejoin:miter;stroke:rgb(100%,100%,100%);stroke-opacity:1;stroke-miterlimit:10;" d="M 297.15293 69.873376 C 297.15293 78.843559 289.877168 86.118028 280.899932 86.118028 C 271.922695 86.118028 264.646934 78.843559 264.646934 69.873376 C 264.646934 60.896069 271.922695 53.6216 280.899932 53.6216 C 289.877168 53.6216 297.15293 60.896069 297.15293 69.873376 Z M 297.15293 69.873376 " transform="matrix(0.548697,0,0,0.548257,0,0)"/>
<path style="fill-rule:nonzero;fill:rgb(100%,100%,100%);fill-opacity:1;stroke-width:1;stroke-linecap:butt;stroke-linejoin:miter;stroke:rgb(100%,100%,100%);stroke-opacity:1;stroke-miterlimit:10;" d="M 516.261455 167.187564 C 508.359209 167.208939 501.959102 173.607051 501.937744 181.508507 L 501.937744 192.402398 C 511.199746 195.715452 521.323164 195.715452 530.578047 192.402398 L 530.578047 181.508507 C 530.556689 173.607051 524.156582 167.208939 516.261455 167.187564 Z M 516.261455 167.187564 " transform="matrix(0.548697,0,0,0.548257,-129.15775,-42.17744)"/>
<path style="fill-rule:nonzero;fill:rgb(100%,100%,100%);fill-opacity:1;stroke-width:1;stroke-linecap:butt;stroke-linejoin:miter;stroke:rgb(100%,100%,100%);stroke-opacity:1;stroke-miterlimit:10;" d="M 499.90167 145.891396 C 498.598867 143.3692 498.000859 140.540636 498.171719 137.712071 C 498.356816 134.862132 499.645381 132.19744 501.766885 130.287981 C 504.137559 128.293023 507.348291 127.559164 510.452236 127.28842 C 513.549062 127.017676 516.688604 127.188672 519.749834 126.590185 C 524.847139 125.557082 529.317959 122.521897 532.158496 118.168616 C 532.464619 120.548314 532.443262 122.949388 532.087305 125.321962 C 531.724229 127.715911 530.38583 129.853365 528.392471 131.22846 C 530.862813 130.088485 530.592285 132.760303 530.05835 134.370518 C 531.282842 135.852486 534.258643 136.087606 534.408145 138.011315 C 534.657314 139.913649 534.44374 141.851608 533.788779 143.661319 C 533.04127 145.421156 533.838613 148.527589 531.930684 148.662961 " transform="matrix(0.548697,0,0,0.548257,-129.15775,-42.17744)"/>
<path style=" stroke:none;fill-rule:nonzero;fill:rgb(100%,100%,100%);fill-opacity:1;" d="M 161.25 29.578125 C 161.25 29.578125 167.472656 30.125 163.046875 39.347656 "/>
<path style=" stroke:none;fill-rule:nonzero;fill:url(#linear10);" d="M 104.574219 167.074219 L 65.523438 139.757812 L 11.457031 139.757812 L 11.457031 409.078125 L 349.378906 409.078125 L 349.378906 167.074219 Z M 104.574219 167.074219 "/>
<path style=" stroke:none;fill-rule:nonzero;fill:rgb(100%,100%,100%);fill-opacity:1;" d="M 14.347656 169.839844 L 14.347656 404.75 L 347.0625 404.75 L 347.0625 169.839844 L 106.035156 169.839844 "/>
<path style=" stroke:none;fill-rule:nonzero;fill:rgb(74.117647%,74.117647%,74.117647%);fill-opacity:1;" d="M 106.035156 169.839844 L 67.582031 143.320312 L 14.347656 143.320312 L 14.347656 169.839844 "/>
<path style=" stroke:none;fill-rule:nonzero;fill:url(#linear11);" d="M 89.074219 204.503906 L 272.339844 204.503906 L 272.339844 370.078125 L 89.074219 370.078125 Z M 89.074219 204.503906 "/>
<path style=" stroke:none;fill-rule:nonzero;fill:rgb(100%,100%,100%);fill-opacity:1;" d="M 91.566406 205.710938 L 270.671875 205.710938 L 270.671875 367.070312 L 91.566406 367.070312 Z M 91.566406 205.710938 "/>
<path style=" stroke:none;fill-rule:nonzero;fill:rgb(74.117647%,74.117647%,74.117647%);fill-opacity:1;" d="M 147.15625 326.480469 L 217.574219 326.480469 L 217.574219 332.242188 L 147.15625 332.242188 Z M 147.15625 326.480469 "/>
<path style=" stroke:none;fill-rule:nonzero;fill:rgb(87.843137%,87.843137%,87.843137%);fill-opacity:1;" d="M 104.179688 338.011719 L 258.058594 338.011719 L 258.058594 343.773438 L 104.179688 343.773438 Z M 104.179688 338.011719 "/>
<path style=" stroke:none;fill-rule:nonzero;fill:rgb(87.843137%,87.843137%,87.843137%);fill-opacity:1;" d="M 104.179688 349.542969 L 258.058594 349.542969 L 258.058594 355.304688 L 104.179688 355.304688 Z M 104.179688 349.542969 "/>
<path style=" stroke:none;fill-rule:nonzero;fill:url(#linear12);" d="M 137.300781 267.40625 C 137.578125 289.628906 154.480469 308.117188 176.601562 310.398438 C 198.726562 312.683594 219.050781 298.039062 223.871094 276.34375 C 228.691406 254.648438 216.476562 232.789062 195.460938 225.503906 L 195.597656 236.78125 C 195.675781 244.957031 189.128906 251.660156 180.949219 251.78125 C 172.769531 251.859375 166.058594 245.316406 165.9375 237.144531 L 165.800781 225.867188 C 148.484375 232.324219 137.082031 248.941406 137.300781 267.40625 Z M 137.300781 267.40625 "/>
<path style=" stroke:none;fill-rule:nonzero;fill:rgb(74.117647%,74.117647%,74.117647%);fill-opacity:1;" d="M 224.925781 262.808594 C 224.921875 240.578125 208.246094 221.882812 186.144531 219.332031 C 164.046875 216.78125 143.542969 231.183594 138.46875 252.828125 C 133.390625 274.46875 145.355469 296.476562 166.289062 304.003906 L 166.289062 292.726562 C 166.320312 284.5625 172.933594 277.957031 181.101562 277.921875 C 189.269531 277.957031 195.882812 284.5625 195.917969 292.726562 L 195.917969 304.003906 C 213.316406 297.757812 224.921875 281.277344 224.925781 262.808594 Z M 224.925781 262.808594 "/>
<path style="fill-rule:nonzero;fill:rgb(100%,100%,100%);fill-opacity:1;stroke-width:1;stroke-linecap:butt;stroke-linejoin:miter;stroke:rgb(100%,100%,100%);stroke-opacity:1;stroke-miterlimit:10;" d="M 327.978809 488.009283 C 330.634248 488.009283 332.777109 490.160987 332.777109 492.81143 L 332.777109 517.057285 C 332.777109 519.707728 330.634248 521.859432 327.978809 521.859432 C 325.330488 521.859432 323.180508 519.707728 323.180508 517.057285 L 323.180508 492.81143 C 323.180508 490.160987 325.330488 488.009283 327.978809 488.009283 Z M 327.978809 488.009283 " transform="matrix(0.548697,0,0,0.548257,0,0)"/>
<path style="fill-rule:nonzero;fill:rgb(100%,100%,100%);fill-opacity:1;stroke-width:1;stroke-linecap:butt;stroke-linejoin:miter;stroke:rgb(100%,100%,100%);stroke-opacity:1;stroke-miterlimit:10;" d="M 358.719258 461.868219 C 358.719258 478.81823 344.979316 492.562061 328.028643 492.562061 C 311.077969 492.562061 297.338027 478.81823 297.338027 461.868219 C 297.338027 444.918208 311.077969 431.181502 328.028643 431.181502 C 344.979316 431.181502 358.719258 444.918208 358.719258 461.868219 Z M 358.719258 461.868219 " transform="matrix(0.548697,0,0,0.548257,0,0)"/>
<path style="fill-rule:nonzero;fill:rgb(100%,100%,100%);fill-opacity:1;stroke-width:1;stroke-linecap:butt;stroke-linejoin:miter;stroke:rgb(100%,100%,100%);stroke-opacity:1;stroke-miterlimit:10;" d="M 563.368809 577.308018 C 548.482686 577.372142 536.42998 589.420258 536.373027 604.311189 L 536.373027 624.880623 C 553.850518 631.143363 572.958291 631.143363 590.4429 624.880623 L 590.4429 604.346813 C 590.400186 589.420258 578.297646 577.329393 563.368809 577.308018 Z M 563.368809 577.308018 " transform="matrix(0.548697,0,0,0.548257,-129.15775,-42.17744)"/>
<path style="fill-rule:nonzero;fill:rgb(100%,100%,100%);fill-opacity:1;stroke-width:1;stroke-linecap:butt;stroke-linejoin:miter;stroke:rgb(100%,100%,100%);stroke-opacity:1;stroke-miterlimit:10;" d="M 532.471738 537.102505 C 530.008516 532.343107 528.883691 527.006597 529.196934 521.662961 C 529.552891 516.283702 531.994756 511.260685 536.002832 507.662637 C 540.466533 503.850844 546.532041 502.497123 552.391094 502.026883 C 558.250146 501.556643 564.180391 501.841637 569.939775 500.708786 C 579.557734 498.763703 588.001035 493.035325 593.368867 484.820377 C 593.739063 489.32328 594.109258 493.890307 593.240723 498.329087 C 592.372187 502.767867 590.086943 507.121148 586.242607 509.486598 C 590.898525 507.327769 590.393066 512.393535 589.382148 515.421595 C 591.68875 518.207411 597.298633 518.670526 597.590518 522.282823 C 597.882402 525.887996 597.832568 529.621416 596.422979 532.948719 C 595.013389 536.283148 596.522646 542.139772 592.920361 542.403392 " transform="matrix(0.548697,0,0,0.548257,-129.15775,-42.17744)"/>
<path style=" stroke:none;fill-rule:nonzero;fill:rgb(100%,100%,100%);fill-opacity:1;" d="M 193.441406 236.75 C 193.441406 236.75 205.191406 237.773438 196.828125 255.199219 "/>
</g>
</svg>
